<svg width="31" height="31" viewBox="0 0 31 31" fill="none" xmlns="http://www.w3.org/2000/svg">
<path d="M15.8962 5.84057C18.0603 5.80727 20.1532 6.61351 21.7356 8.09008L25.998 3.92216C23.2634 1.35974 19.6434 -0.0453416 15.8962 0.00111641C13.0964 0.000469455 10.3515 0.778697 7.9687 2.24877C5.58586 3.71884 3.65895 5.8228 2.40344 8.32535L7.28732 12.1171C7.8845 10.3013 9.03659 8.71881 10.5811 7.59271C12.1257 6.4666 13.9848 5.85375 15.8962 5.84057Z" fill="#EA4335"/>
<path d="M30.3955 15.44C30.4133 14.4018 30.306 13.3651 30.076 12.3525H15.8964V17.9582H24.2206C24.0627 18.941 23.7076 19.8817 23.1768 20.7237C22.646 21.5658 21.9503 22.2918 21.1317 22.858L25.8979 26.5496C27.3833 25.1155 28.5515 23.3858 29.3269 21.4722C30.1024 19.5586 30.4679 17.5036 30.3999 15.44H30.3955Z" fill="#4285F4"/>
<path d="M7.30482 18.0915C6.9746 17.13 6.80436 16.1209 6.80089 15.1042C6.80691 14.0893 6.97105 13.0814 7.28739 12.117L2.40351 8.3252C1.34424 10.4282 0.79248 12.7502 0.79248 15.105C0.79248 17.4597 1.34424 19.7817 2.40351 21.8847L7.30482 18.0915Z" fill="#FBBC05"/>
<path d="M15.8965 30.2078C19.5754 30.3119 23.1544 29.0028 25.898 26.5496L21.1318 22.858C19.5864 23.8941 17.7562 24.4221 15.8965 24.3684C13.9867 24.357 12.1289 23.7446 10.5868 22.618C9.04467 21.4913 7.89645 19.9077 7.30502 18.0918L2.42114 21.885C3.67326 24.3865 5.59702 26.4899 7.97699 27.9599C10.357 29.4298 13.0991 30.2082 15.8965 30.2078Z" fill="#34A853"/>
</svg>
