<svg width="34" height="34" viewBox="0 0 34 34" fill="none" xmlns="http://www.w3.org/2000/svg">
<g clip-path="url(#clip0_472_427)">
<path d="M29.046 4.9409C25.8498 1.75657 21.5998 0.00194283 17.0717 0C7.74095 0 0.147564 7.55756 0.143828 16.8469C0.142741 19.8162 0.922026 22.7148 2.40324 25.2698L0.00170898 34L8.97539 31.6573C11.4478 32.9998 14.2316 33.7072 17.0645 33.7083H17.0717H17.0717C26.401 33.7083 33.9956 26.1494 33.9995 16.8605C34.0011 12.3585 32.2418 8.12545 29.046 4.9409ZM17.0717 30.8628H17.0662C14.5412 30.8615 12.065 30.1865 9.90516 28.9106L9.39115 28.6072L4.06598 29.9972L5.48773 24.83L5.15284 24.3002C3.74433 22.0705 3.00076 19.4938 3.00182 16.848C3.00491 9.12698 9.31625 2.84561 17.0771 2.84561C20.8353 2.84716 24.3675 4.30562 27.0241 6.95234C29.6805 9.59903 31.1424 13.1174 31.1413 16.8593C31.138 24.5806 24.8264 30.8628 17.0717 30.8628Z" fill="#E0E0E0"/>
<path d="M0.778076 33.0311L3.0699 24.6997C1.65599 22.2614 0.912445 19.4951 0.913337 16.6619C0.917045 7.79708 8.16363 0.584961 17.0674 0.584961C21.3889 0.586904 25.4448 2.26129 28.4943 5.30024C31.5445 8.33916 33.2232 12.3786 33.2215 16.6745C33.2178 25.5395 25.9707 32.7523 17.0681 32.7523C17.0674 32.7523 17.0685 32.7523 17.0681 32.7523H17.0609C14.3574 32.7514 11.701 32.0757 9.34168 30.7955L0.778076 33.0311Z" fill="url(#paint0_linear_472_427)"/>
<path fill-rule="evenodd" clip-rule="evenodd" d="M12.8882 9.69435C12.575 9.00112 12.2453 8.98724 11.9473 8.97511C11.7036 8.9647 11.4246 8.96534 11.1461 8.96534C10.8673 8.96534 10.4143 9.06964 10.0312 9.48618C9.64788 9.90273 8.56763 10.9097 8.56763 12.9577C8.56763 15.0059 10.066 16.985 10.2749 17.2629C10.484 17.5405 13.1674 21.8776 17.4172 23.5461C20.9491 24.9328 21.6678 24.657 22.4345 24.5876C23.2011 24.5182 24.9081 23.5808 25.2566 22.6087C25.6051 21.6369 25.6051 20.8038 25.5005 20.6297C25.396 20.4562 25.1172 20.3521 24.6991 20.144C24.2809 19.9358 22.2254 18.9286 21.8421 18.7899C21.4588 18.6511 21.18 18.5817 20.9012 18.9985C20.6224 19.4148 19.8216 20.3521 19.5777 20.6297C19.3337 20.9079 19.0898 20.9426 18.6717 20.7344C18.2535 20.5256 16.9069 20.0865 15.3094 18.6684C14.0664 17.5651 13.2273 16.2026 12.9834 15.7858C12.7394 15.3695 12.9572 15.144 13.167 14.9365C13.3547 14.75 13.5851 14.4505 13.7942 14.2075C14.0028 13.9644 14.0725 13.7909 14.2119 13.5134C14.3513 13.2354 14.2816 12.9923 14.1771 12.7842C14.0725 12.576 13.26 10.5174 12.8882 9.69435Z" fill="white"/>
<path d="M28.9072 4.88713C25.7477 1.73935 21.5464 0.00490027 17.0704 0.00292969C7.84668 0.00292969 0.340471 7.47373 0.336763 16.6564C0.335676 19.5917 1.10601 22.457 2.57022 24.9826L0.196289 33.6126L9.06696 31.2968C11.511 32.6238 14.2628 33.3231 17.0632 33.3242H17.0703H17.0704C26.2926 33.3242 33.7999 25.8521 33.8038 16.6698C33.8053 12.2196 32.0663 8.03512 28.9072 4.88713ZM17.0704 30.5115H17.065C14.5688 30.5102 12.1211 29.843 9.98605 28.5817L9.47793 28.2818L4.2139 29.6558L5.61931 24.5479L5.28826 24.0242C3.89593 21.8201 3.16088 19.273 3.16197 16.6575C3.16501 9.02519 9.40389 2.81593 17.0756 2.81593C20.7907 2.81745 24.2824 4.25917 26.9085 6.8755C29.5344 9.49183 30.9795 12.9698 30.9784 16.6688C30.9751 24.3013 24.736 30.5115 17.0704 30.5115Z" fill="white"/>
</g>
<defs>
<linearGradient id="paint0_linear_472_427" x1="16.9998" y1="33.0311" x2="16.9998" y2="0.585015" gradientUnits="userSpaceOnUse">
<stop stop-color="#20B038"/>
<stop offset="1" stop-color="#60D66A"/>
</linearGradient>
<clipPath id="clip0_472_427">
<rect width="34" height="34" fill="white"/>
</clipPath>
</defs>
</svg>
